<svg id="Layer_5" enable-background="new 0 0 64 64" height="512" viewBox="0 0 64 64" width="512" xmlns="http://www.w3.org/2000/svg" style="fill: white"><g><path d="m43 27h2v2h-2z"/><path d="m39 27h2v2h-2z"/><path d="m47 27h2v2h-2z"/><path d="m29 16.026c-.955.723-1.654 1.766-1.9 2.982.555-.543 1.198-.986 1.9-1.32z"/><path d="m35 27h2v2h-2z"/><path d="m35 39h2v2h-2z"/><path d="m43 15h2v2h-2z"/><path d="m33 17v-2h-1c-.342 0-.677.035-1 .101v1.978c.328-.048.661-.079 1-.079z"/><path d="m27.429 22.009c.646 1.463 1.967 2.563 3.571 2.89v-5.785c-1.579.324-2.918 1.396-3.571 2.895z"/><path d="m47 15h2v2h-2z"/><path d="m35 15h2v2h-2z"/><path d="m33 29v-2h-1c-.34 0-.672-.033-1-.08v1.979c.323.066.658.101 1 .101z"/><path d="m33 19h10v6h-10z"/><path d="m39 15h2v2h-2z"/><path d="m45 19h4v6h-4z"/><path d="m51 39h2v2h-2z"/><path d="m51 27h2v2h-2z"/><path d="m59 28.026v1.662c.702.334 1.345.777 1.9 1.32-.246-1.216-.945-2.26-1.9-2.982z"/><path d="m27 39h2v2h-2z"/><path d="m60.571 34.009c-.788-1.809-2.574-3.009-4.571-3.009h-3v6h3c2.041 0 3.795-1.233 4.571-2.991z"/><path d="m60.9 36.987c-.552.543-1.194.991-1.9 1.328v1.659c.956-.723 1.655-1.769 1.9-2.987z"/><path d="m55 39v2h1c.342 0 .677-.035 1-.101v-1.979c-.328.047-.66.08-1 .08z"/><path d="m57 29.079v-1.978c-.323-.066-.658-.101-1-.101h-1v2h1c.339 0 .672.031 1 .079z"/><path d="m35 31h-3c-1.958 0-3.728-.81-5-2.111v8.111h8z"/><path d="m31 39h2v2h-2z"/><path d="m39 39h2v2h-2z"/><path d="m47 39h2v2h-2z"/><path d="m37 31h14v6h-14z"/><path d="m43 39h2v2h-2z"/><path d="m9 43h14v14h-14z"/><path d="m19 59h2v2h-2z"/><path d="m35 59h2v2h-2z"/><path d="m39 59h2v2h-2z"/><path d="m25 43h14v14h-14z"/><path d="m23 59h2v2h-2z"/><path d="m27 59h2v2h-2z"/><path d="m41 43h14v14h-14z"/><path d="m31 59h2v2h-2z"/><path d="m59 59.974c.955-.723 1.654-1.768 1.9-2.984-.552.542-1.194.988-1.9 1.324z"/><path d="m57 42.92v13.979c2.279-.465 4-2.484 4-4.899v-1-10.111c-1.051 1.075-2.444 1.807-4 2.031z"/><path d="m43 59h2v2h-2z"/><path d="m55 59v2h1c.342 0 .677-.035 1-.101v-1.979c-.328.047-.66.08-1 .08z"/><path d="m47 59h2v2h-2z"/><path d="m51 59h2v2h-2z"/><path d="m3 39h2v2h-2z"/><path d="m15 39h2v2h-2z"/><path d="m7 39h2v2h-2z"/><path d="m11 39h2v2h-2z"/><path d="m19 39h2v2h-2z"/><path d="m23 39h2v2h-2z"/><path d="m15 27c4.054 0 7.767-2.016 10-5.39v-1.61c0-1.901.764-3.624 1.998-4.887 0-.038.002-.075.002-.113 0-6.617-5.383-12-12-12s-12 5.383-12 12 5.383 12 12 12zm-7-16.61c0-1.32 1.07-2.39 2.39-2.39.4 0 .794.1 1.145.292l9.587 5.229c.541.295.878.863.878 1.479s-.337 1.184-.878 1.479l-9.587 5.229c-.351.192-.745.292-1.145.292-1.32 0-2.39-1.07-2.39-2.39z"/><path d="m15 59h2v2h-2z"/><path d="m11 59h2v2h-2z"/><path d="m7 59h2v2h-2z"/><path d="m3 43h4v14h-4z"/><path d="m29 27.974v-1.66c-.705-.337-1.348-.783-1.9-1.324.246 1.217.945 2.261 1.9 2.984z"/><path d="m3 59h2v2h-2z"/></g></svg>